<?xml version="1.0" encoding="utf-8"?>
<!-- Generator: Adobe Illustrator 23.0.4, SVG Export Plug-In . SVG Version: 6.00 Build 0)  -->
<svg version="1.1" id="Layer_1" xmlns="http://www.w3.org/2000/svg" xmlns:xlink="http://www.w3.org/1999/xlink" x="0px" y="0px"
	 viewBox="0 0 1920 1080" style="enable-background:new 0 0 1920 1080;" xml:space="preserve">
<style type="text/css">
	.st0{fill:#63B5D0;}
	.st1{fill:#010101;}
	.st2{fill:#C4E7EE;}
	.st3{fill:#55A4DB;}
	.st4{fill:#4A6EB5;}
	.st5{fill:#FFFFFF;}
	.st6{fill:#FFFFFF;stroke:#FFFFFF;stroke-miterlimit:10;}
	.st7{font-family:'AndaleMono';}
	.st8{font-size:60px;}
	.st9{fill:#FCBA73;stroke:#FCBA73;stroke-miterlimit:10;}
	.st10{fill:#F3F3F3;}
	.st11{font-size:41.4892px;}
	.st12{letter-spacing:-1;}
	.st13{fill:#C2C2C2;}
	.st14{fill:#949494;stroke:#C2C2C2;stroke-miterlimit:10;}
	.st15{font-size:90px;}
	.st16{letter-spacing:-2;}
</style>
<g>
	<rect x="0.5" y="0.5" class="st0" width="1919" height="1079"/>
	<path class="st1" d="M1919,1v1078H1V1H1919 M1920,0H0v1080h1920V0L1920,0z"/>
</g>
<g>
	<circle class="st2" cx="958" cy="313" r="210"/>
	<g>
		<g>
			<path class="st3" d="M758,293.4"/>
			<path class="st3" d="M780.92,281.94l84.04,124.15c28.01-41.38,56.03-82.77,84.04-124.15c0-46.1-37.94-84.04-84.04-84.04
				c-46.02,0-83.92,37.8-84.04,83.83"/>
			<path class="st3" d="M780.92,281.73l84.04,0.21h-84.04"/>
			<circle class="st4" cx="864.01" cy="280.99" r="43.93"/>
			<circle class="st5" cx="864.01" cy="280.99" r="35.34"/>
		</g>
		<g>
			<path class="st3" d="M945,293.4"/>
			<path class="st3" d="M967.92,281.94l84.04,124.15c28.01-41.38,56.03-82.77,84.04-124.15c0-46.1-37.94-84.04-84.04-84.04
				c-46.02,0-83.92,37.8-84.04,83.83"/>
			<path class="st3" d="M967.92,281.73l84.04,0.21h-84.04"/>
			<circle class="st4" cx="1051.01" cy="280.99" r="43.93"/>
			<circle class="st5" cx="1051.01" cy="280.99" r="35.34"/>
		</g>
	</g>
	<g>
		<path class="st3" d="M851.5,344.5"/>
		<path class="st3" d="M874.42,333.04l84.04,124.15c28.01-41.38,56.03-82.77,84.04-124.15c0-46.1-37.94-84.04-84.04-84.04
			c-46.02,0-83.92,37.8-84.04,83.83"/>
		<path class="st3" d="M874.42,332.83l84.04,0.21h-84.04"/>
		<circle class="st4" cx="957.51" cy="332.09" r="43.93"/>
		<circle class="st5" cx="957.51" cy="332.09" r="35.34"/>
	</g>
</g>
<text transform="matrix(1 0 0 1 725.9829 580.0742)" class="st6 st7 st8">where we live</text>
<text transform="matrix(1 0 0 1 556.9565 987.0742)"><tspan x="0" y="0" class="st6 st7 st8">finding the </tspan><tspan x="432.07" y="0" class="st9 st7 st8">sweet </tspan><tspan x="648.11" y="0" class="st6 st7 st8">spot</tspan></text>
<g>
	<g>
		<path class="st10" d="M859.36,742h-14.05c-17.66,0-31.98-14.32-31.98-31.98v-14.05c0-17.66,14.32-31.98,31.98-31.98h14.05
			c17.66,0,31.98,14.32,31.98,31.98v14.05C891.33,727.68,877.02,742,859.36,742z"/>
	</g>
	<text transform="matrix(1 0 0 1 440.8125 712.2817)" class="st5 st7 st11 st12">No. of bedrooms</text>
	<g>
		<path class="st10" d="M1394.36,742h-14.05c-17.66,0-31.98-14.32-31.98-31.98v-14.05c0-17.66,14.32-31.98,31.98-31.98h14.05
			c17.66,0,31.98,14.32,31.98,31.98v14.05C1426.33,727.68,1412.02,742,1394.36,742z"/>
	</g>
	<text transform="matrix(1 0 0 1 1021.4653 712.2817)" class="st5 st7 st11 st12">Search Radius</text>
</g>
<g>
	<g>
		<g>
			<g>
				<rect x="647.06" y="800" class="st10" width="247" height="78"/>
			</g>
			<text transform="matrix(1 0 0 1 670.9717 852.5625)" class="st13 st7 st11">Person 1</text>
		</g>
		<g>
			<g>
				<rect x="949.17" y="800" class="st10" width="247" height="78"/>
			</g>
			<text transform="matrix(1 0 0 1 973.0825 852.5625)" class="st13 st7 st11">Person 2</text>
		</g>
		<g>
			<g>
				<rect x="1239.67" y="800" class="st10" width="247" height="78"/>
			</g>
			<text transform="matrix(1 0 0 1 1263.5828 852.5625)" class="st13 st7 st11">Person 3</text>
		</g>
		<text transform="matrix(1 0 0 1 297.9805 850.2817)" class="st5 st7 st11 st12">Work Locations</text>
	</g>
	<g>
		<g>
			<path class="st10" d="M1576.09,878h-14.05c-17.66,0-31.98-14.32-31.98-31.98v-14.05c0-17.66,14.32-31.98,31.98-31.98h14.05
				c17.66,0,31.98,14.32,31.98,31.98v14.05C1608.06,863.68,1593.75,878,1576.09,878z"/>
		</g>
		<text transform="matrix(1 0 0 1 1541.957 870.7866)" class="st14 st7 st15 st16">+</text>
	</g>
</g>
</svg>
